# File created by Blade
# Date/Time:  Thu Sep 25 15:31:15 2014
# Frame Rate: 120.000 fps
#------------------------------------------------------
:FULLY-SPECIFIED
:DEGREES
1180
root -33.485785 34.591454 7.055833 335.561496 -14.421243 -139.113542
Spine -7.538718 17.122772 -23.873554
Head -93.424534 7.766644 -12.775160
LeftShoulder -17.730090 34.705534 9.362503
LeftArm 161.410804 -41.976846 -105.932154
LeftForeArm -35.576801 -0.000000 26.119514
LeftHand -46.201210 -0.000000 104.144686
LeftHandThumb1 -26.253704 0.000000 33.147579
RightShoulder -6.235293 25.852540 -38.180171
RightArm 70.666415 29.170896 33.227900
RightForeArm -15.163592 0.000000 21.875879
RightHand -8.415940 -0.000000 -75.282880
RightHandThumb1 -24.326973 -0.000000 -32.862282
LeftUpLeg -100.283899 45.376638 13.244962
LeftLeg 2.329796 -0.000000 -0.000000
LeftFoot -26.270021 24.156399 -22.668409
LeftToeBase -1.986141 -0.000000 0.000000
RightUpLeg 10.947925 -0.037829 -22.265254
RightLeg 47.163207 -0.000000 -0.000000
RightFoot 16.925093 -19.175934 -7.594044
RightToeBase 10.224318 -0.000000 -0.000000
1181
root -33.584222 34.475184 7.199061 334.423846 -13.398575 -138.578175
Spine -6.208402 17.375144 -24.188309
Head -93.491965 7.795591 -13.023541
LeftShoulder -17.774964 35.097710 9.213701
LeftArm 161.572077 -41.197996 -106.031891
LeftForeArm -35.289582 0.000000 26.394043
LeftHand -46.414635 0.000000 104.058498
LeftHandThumb1 -26.253704 0.000000 33.147579
RightShoulder -5.957968 25.984415 -38.238642
RightArm 70.351598 29.390654 33.082711
RightForeArm -15.349859 0.000000 21.583652
RightHand -8.433524 0.000000 -76.802106
RightHandThumb1 -24.326973 -0.000000 -32.862282
LeftUpLeg -100.462823 45.344344 13.126487
LeftLeg 2.233747 -0.000000 -0.000000
LeftFoot -26.867862 24.635495 -23.264989
LeftToeBase -2.243888 -0.000000 0.000000
RightUpLeg 10.292527 0.472600 -22.052625
RightLeg 49.698259 -0.000000 -0.000000
RightFoot 16.802375 -19.873386 -7.882544
RightToeBase 10.683969 -0.000000 -0.000000
1182
root -33.676111 34.360074 7.334846 333.322802 -12.350921 -138.091676
Spine -4.898548 17.508375 -24.460734
Head -93.482981 7.840898 -13.304271
LeftShoulder -17.641516 35.118429 9.299361
LeftArm 161.242590 -40.717849 -105.916254
LeftForeArm -35.336029 -0.000000 26.570098
LeftHand -46.370718 -0.000000 104.285089
LeftHandThumb1 -26.253704 0.000000 33.147579
RightShoulder -5.865143 26.488507 -38.690905
RightArm 69.948152 29.209584 33.893237
RightForeArm -16.078810 -0.000000 21.782193
RightHand -8.727973 -0.000000 -76.780252
RightHandThumb1 -24.326973 -0.000000 -32.862282
LeftUpLeg -100.693860 45.287890 12.889020
LeftLeg 2.188701 -0.000000 -0.000000
LeftFoot -27.223304 25.115336 -23.426761
LeftToeBase -2.852414 -0.000000 0.000000
RightUpLeg 9.558010 0.818758 -21.787466
RightLeg 52.068087 -0.000000 -0.000000
RightFoot 16.586434 -20.438759 -7.951544
RightToeBase 10.825368 -0.000000 -0.000000
1183
root -33.763795 34.241731 7.472130 332.265868 -11.239968 -137.661573
Spine -3.647245 17.569532 -24.721134
Head -93.374184 7.957667 -13.540581
LeftShoulder -17.599684 35.327708 9.413050
LeftArm 160.862183 -40.217913 -105.874682
LeftForeArm -35.189888 -0.000000 26.961696
LeftHand -46.536517 -0.000000 104.351698
LeftHandThumb1 -26.253704 0.000000 33.147579
RightShoulder -5.860080 27.261061 -39.309528
RightArm 69.339379 28.759374 34.909888
RightForeArm -17.000945 -0.000000 22.095910
RightHand -8.439088 0.000000 -77.069230
RightHandThumb1 -24.326973 -0.000000 -32.862282
LeftUpLeg -100.802589 45.194291 12.779423
LeftLeg 2.178372 -0.000000 -0.000000
LeftFoot -27.688010 26.046100 -23.442283
LeftToeBase -3.418979 -0.000000 0.000000
RightUpLeg 8.822254 0.916118 -21.505061
RightLeg 54.089710 -0.000000 -0.000000
RightFoot 16.202031 -21.060239 -7.809897
RightToeBase 10.850100 -0.000000 -0.000000
1184
root -33.843459 34.119297 7.610662 331.173471 -10.125288 -137.297602
Spine -2.366437 17.630396 -24.918042
Head -93.245708 8.086907 -13.797671
LeftShoulder -17.643734 35.804009 9.393593
LeftArm 160.726330 -39.924385 -105.906877
LeftForeArm -34.992605 -0.000000 27.410963
LeftHand -46.873812 -0.000000 104.255493
LeftHandThumb1 -26.253704 0.000000 33.147579
RightShoulder -5.713815 27.851432 -39.627904
RightArm 68.777282 28.463950 35.318778
RightForeArm -17.557771 0.000000 22.188851
RightHand -7.706348 -0.000000 -77.657365
RightHandThumb1 -24.326973 -0.000000 -32.862282
LeftUpLeg -100.814998 45.073429 12.684541
LeftLeg 2.199395 -0.000000 -0.000000
LeftFoot -28.026224 26.405970 -23.707959
LeftToeBase -3.129041 -0.000000 0.000000
RightUpLeg 8.148224 0.819268 -21.165285
RightLeg 55.677728 -0.000000 -0.000000
RightFoot 15.791356 -21.745540 -7.646695
RightToeBase 10.556635 -0.000000 -0.000000
1185
root -33.911304 34.003273 7.752216 330.166269 -9.104327 -137.011695
Spine -1.283169 17.721717 -25.098757
Head -93.007476 8.314069 -13.924669
LeftShoulder -17.684957 36.291037 9.492867
LeftArm 160.540027 -39.721941 -105.904644
LeftForeArm -35.258880 -0.000000 27.743944
LeftHand -47.110651 -0.000000 104.207260
LeftHandThumb1 -26.253704 0.000000 33.147579
RightShoulder -5.486288 27.923013 -39.726597
RightArm 68.301385 28.478654 35.458552
RightForeArm -17.927497 -0.000000 22.419663
RightHand -7.467166 -0.000000 -77.729880
RightHandThumb1 -24.326973 -0.000000 -32.862282
LeftUpLeg -101.144872 44.995504 12.165267
LeftLeg 2.129158 -0.000000 -0.000000
LeftFoot -28.138561 26.001256 -24.141835
LeftToeBase -2.116445 -0.000000 0.000000
RightUpLeg 7.401149 0.634125 -20.664525
RightLeg 56.854079 -0.000000 -0.000000
RightFoot 15.225275 -22.420368 -7.463387
RightToeBase 10.452907 -0.000000 -0.000000
1186
root -33.992169 33.868306 7.887001 329.156537 -7.786678 -136.673585
Spine -0.084062 17.624189 -25.437146
Head -92.826508 8.438472 -13.982085
LeftShoulder -17.425081 36.126801 9.895553
LeftArm 159.577218 -40.292230 -105.350605
LeftForeArm -35.935281 0.000000 27.855011
LeftHand -47.375870 -0.000000 104.434573
LeftHandThumb1 -26.253704 0.000000 33.147579
RightShoulder -5.368092 28.136080 -39.927695
RightArm 67.743262 28.252165 35.558049
RightForeArm -18.309426 -0.000000 22.725479
RightHand -9.394251 0.000000 -78.566958
RightHandThumb1 -24.326973 -0.000000 -32.862282
LeftUpLeg -101.553490 44.637441 11.250203
LeftLeg 2.031343 -0.000000 -0.000000
LeftFoot -28.122621 25.991814 -23.904937
LeftToeBase -1.831157 -0.000000 0.000000
RightUpLeg 6.733581 0.137343 -20.440620
RightLeg 57.623614 -0.000000 -0.000000
RightFoot 14.447614 -22.816551 -6.929702
RightToeBase 10.305886 -0.000000 -0.000000
1187
root -34.077160 33.720694 8.028459 328.159792 -6.451245 -136.379511
Spine 1.047042 17.602384 -25.681659
Head -92.506124 8.436210 -14.058458
LeftShoulder -17.197522 36.320461 10.102297
LeftArm 159.009997 -40.662933 -104.911247
LeftForeArm -36.526372 -0.000000 27.806723
LeftHand -47.524240 -0.000000 104.507343
LeftHandThumb1 -26.253704 0.000000 33.147579
RightShoulder -5.135827 27.802417 -39.876098
RightArm 67.360776 28.339473 35.058125
RightForeArm -18.321090 -0.000000 22.868236
RightHand -8.860936 -0.000000 -77.978156
RightHandThumb1 -24.326973 -0.000000 -32.862282
LeftUpLeg -101.568304 44.325690 10.882153
LeftLeg 1.994210 -0.000000 -0.000000
LeftFoot -28.283521 26.668569 -23.114451
LeftToeBase -1.022725 -0.000000 0.000000
RightUpLeg 6.096163 -0.466731 -20.219336
RightLeg 57.939702 -0.000000 -0.000000
RightFoot 13.732737 -22.939375 -6.506428
RightToeBase 10.168509 -0.000000 -0.000000
1188
root -34.154199 33.569123 8.169538 327.206356 -5.050537 -136.093121
Spine 2.107173 17.506519 -26.069792
Head -92.262585 8.474198 -13.887888
LeftShoulder -16.993128 36.328508 10.483154
LeftArm 158.133030 -41.080874 -104.253718
LeftForeArm -37.156372 -0.000000 27.711756
LeftHand -47.877252 -0.000000 104.550427
LeftHandThumb1 -26.253704 0.000000 33.147579
RightShoulder -5.012541 27.880641 -39.918205
RightArm 66.596428 27.920131 34.422698
RightForeArm -18.195059 -0.000000 23.100705
RightHand -7.884460 -0.000000 -76.745319
RightHandThumb1 -24.326973 -0.000000 -32.862282
LeftUpLeg -101.850574 43.946761 10.028770
LeftLeg 1.893526 -0.000000 -0.000000
LeftFoot -28.416351 26.937895 -22.777638
LeftToeBase -0.995126 -0.000000 0.000000
RightUpLeg 5.467780 -1.148041 -19.991069
RightLeg 57.861468 -0.000000 -0.000000
RightFoot 13.020792 -22.777240 -6.375191
RightToeBase 10.219904 -0.000000 -0.000000
1189
root -34.229140 33.411892 8.307699 326.288858 -3.597025 -135.816277
Spine 3.075869 17.638792 -26.621428
Head -91.973232 8.581276 -13.584820
LeftShoulder -16.621437 36.481149 11.055107
LeftArm 157.473934 -41.297116 -103.583977
LeftForeArm -37.845038 -0.000000 27.552318
LeftHand -48.013232 0.000000 104.334041
LeftHandThumb1 -26.253704 0.000000 33.147579
RightShoulder -4.985693 27.937320 -39.852134
RightArm 65.596667 27.514059 33.714365
RightForeArm -16.976307 -0.000000 23.898531
RightHand -8.409880 0.000000 -76.142406
RightHandThumb1 -24.326973 -0.000000 -32.862282
LeftUpLeg -102.034187 43.544683 9.257109
LeftLeg 1.832920 -0.000000 -0.000000
LeftFoot -28.720297 27.178175 -22.715644
LeftToeBase -0.661622 -0.000000 0.000000
RightUpLeg 4.823605 -1.896507 -19.787639
RightLeg 57.435631 -0.000000 -0.000000
RightFoot 12.360642 -22.336900 -6.219198
RightToeBase 10.025569 -0.000000 -0.000000
1190
root -34.308652 33.251012 8.447061 325.421808 -2.138020 -135.601480
Spine 4.011193 17.533818 -26.869344
Head -91.569061 8.468619 -13.649855
LeftShoulder -16.097107 36.306997 11.539354
LeftArm 156.294698 -41.915969 -102.716066
LeftForeArm -38.601519 -0.000000 27.218095
LeftHand -48.175361 0.000000 104.266443
LeftHandThumb1 -26.253704 0.000000 33.147579
RightShoulder -4.882728 28.065424 -40.208603
RightArm 64.939765 27.039454 33.643143
RightForeArm -16.933540 0.000000 24.202898
RightHand -7.950582 -0.000000 -76.011360
RightHandThumb1 -24.326973 -0.000000 -32.862282
LeftUpLeg -102.186650 43.161710 8.565425
LeftLeg 1.751072 -0.000000 -0.000000
LeftFoot -29.045186 27.722577 -22.683627
LeftToeBase -0.829096 -0.000000 0.000000
RightUpLeg 4.145292 -2.646648 -19.525218
RightLeg 56.701148 -0.000000 -0.000000
RightFoot 11.831659 -21.590175 -6.462644
RightToeBase 9.769711 -0.000000 -0.000000
1191
root -34.388044 33.089060 8.586283 324.611687 -0.676803 -135.382418
Spine 4.832578 17.318664 -27.234639
Head -91.257230 8.612260 -13.673668
LeftShoulder -15.852576 36.431592 11.909302
LeftArm 155.382834 -42.272781 -102.021095
LeftForeArm -39.279962 -0.000000 26.974569
LeftHand -48.443736 -0.000000 104.007408
LeftHandThumb1 -26.253704 0.000000 33.147579
RightShoulder -4.615829 28.038508 -40.282094
RightArm 64.469021 26.678560 33.314925
RightForeArm -16.882222 -0.000000 24.185527
RightHand -7.850245 -0.000000 -75.856971
RightHandThumb1 -24.326973 -0.000000 -32.862282
LeftUpLeg -102.386548 42.798324 7.803570
LeftLeg 1.648531 -0.000000 -0.000000
LeftFoot -29.343693 28.265055 -22.780106
LeftToeBase -1.247280 -0.000000 0.000000
RightUpLeg 3.396298 -3.304837 -19.228478
RightLeg 55.748552 -0.000000 -0.000000
RightFoot 11.342577 -20.840115 -6.727023
RightToeBase 9.691759 -0.000000 -0.000000
1192
root -34.465388 32.925951 8.723450 323.783646 0.725051 -135.215046
Spine 5.655827 17.244106 -27.538500
Head -91.007672 8.745578 -13.680381
LeftShoulder -15.522171 36.586916 12.364983
LeftArm 154.584706 -42.371293 -101.386747
LeftForeArm -39.861158 0.000000 26.644959
LeftHand -48.549981 -0.000000 103.904432
LeftHandThumb1 -26.253704 0.000000 33.147579
RightShoulder -4.387010 27.979982 -40.234062
RightArm 64.194283 26.290741 32.828125
RightForeArm -16.705605 -0.000000 23.761714
RightHand -7.555185 -0.000000 -75.933886
RightHandThumb1 -24.326973 -0.000000 -32.862282
LeftUpLeg -102.458673 42.509890 7.235470
LeftLeg 1.630089 -0.000000 -0.000000
LeftFoot -29.516745 28.784405 -22.583752
LeftToeBase -1.221876 -0.000000 0.000000
RightUpLeg 2.604158 -3.798854 -18.789299
RightLeg 54.601086 -0.000000 -0.000000
RightFoot 11.020866 -20.176412 -7.040111
RightToeBase 9.435194 -0.000000 -0.000000
